<?xml version="1.0" standalone="no"?>
<!DOCTYPE svg PUBLIC "-//W3C//DTD SVG 20010904//EN"
 "http://www.w3.org/TR/2001/REC-SVG-20010904/DTD/svg10.dtd">
<svg version="1.0" xmlns="http://www.w3.org/2000/svg"
 width="512.000000pt" height="512.000000pt" viewBox="0 0 512.000000 512.000000"
 preserveAspectRatio="xMidYMid meet">
<metadata>
Created by potrace 1.11, written by Peter Selinger 2001-2013
</metadata>
<g transform="translate(0.000000,512.000000) scale(0.100000,-0.100000)"
fill="#000000" stroke="none">
<path d="M2367 5114 c-1 -1 -40 -5 -86 -8 -47 -4 -94 -8 -105 -11 -12 -2 -37
-7 -56 -10 -425 -62 -858 -263 -1195 -554 -299 -257 -535 -559 -686 -876 -50
-107 -135 -337 -154 -420 -4 -16 -9 -37 -11 -45 -2 -8 -12 -58 -23 -110 -38
-189 -46 -276 -46 -520 0 -231 5 -293 40 -505 15 -88 65 -275 96 -355 11 -30
25 -69 30 -86 30 -102 236 -466 321 -569 9 -11 40 -49 68 -85 53 -67 159 -179
271 -286 238 -226 576 -431 884 -537 154 -53 306 -93 390 -103 22 -2 54 -7 70
-9 178 -27 677 -27 757 0 7 2 31 6 53 9 99 13 287 55 300 66 7 6 15 7 18 4 3
-3 12 -2 19 2 7 5 18 9 23 10 6 1 55 18 110 39 214 80 419 191 605 328 403
297 759 760 903 1174 52 149 114 389 123 471 3 31 7 64 9 72 13 47 19 162 19
380 1 244 -4 325 -23 410 -5 25 -12 65 -16 90 -6 42 -29 125 -77 280 -82 262
-228 533 -416 770 -68 85 -106 127 -249 275 -79 82 -384 325 -408 325 -2 0
-24 14 -49 31 -65 43 -256 139 -356 178 -47 18 -94 37 -105 41 -32 13 -57 21
-115 37 -164 44 -212 54 -370 78 -19 3 -53 8 -75 11 -37 6 -482 13 -488 8z"/>
</g>
</svg>
